<?xml version="1.0" encoding="UTF-8"?>
<mxfile host="app.diagrams.net" modified="2025-07-05T15:30:00.000Z" agent="5.0" etag="drawio-diagram" version="24.6.4" type="device">
  <diagram name="AWS-Confluent Architecture" id="aws-confluent-diagram">
    <mxGraphModel dx="1422" dy="754" grid="1" gridSize="10" guides="1" tooltips="1" connect="1" arrows="1" fold="1" page="1" pageScale="1" pageWidth="1169" pageHeight="827" math="0" shadow="0">
      <root>
        <mxCell id="0" />
        <mxCell id="1" parent="0" />
        
        <!-- Título Principal -->
        <mxCell id="title" value="Arquitectura AWS-Confluent: Streaming de Datos Estudiantiles" style="text;html=1;strokeColor=none;fillColor=none;align=center;verticalAlign=middle;whiteSpace=wrap;rounded=0;fontSize=20;fontStyle=1" vertex="1" parent="1">
          <mxGeometry x="284" y="30" width="600" height="30" as="geometry" />
        </mxCell>
        
        <!-- Capa 1: Fuentes de Datos -->
        <mxCell id="sources-container" value="FUENTES DE DATOS" style="swimlane;whiteSpace=wrap;html=1;fontSize=14;fontStyle=1;fillColor=#E8F5E8;strokeColor=#4CAF50;strokeWidth=2" vertex="1" parent="1">
          <mxGeometry x="50" y="100" width="180" height="400" as="geometry" />
        </mxCell>
        
        <mxCell id="web-app" value="📱 Aplicación Web&#xa;Estudiantil" style="rounded=1;whiteSpace=wrap;html=1;fontSize=12;fillColor=#4CAF50;strokeColor=#2E7D32;fontColor=white;fontStyle=1" vertex="1" parent="sources-container">
          <mxGeometry x="20" y="40" width="140" height="60" as="geometry" />
        </mxCell>
        
        <mxCell id="user-events" value="👥 Eventos de&#xa;Usuario" style="ellipse;whiteSpace=wrap;html=1;fontSize=12;fillColor=#81C784;strokeColor=#4CAF50;fontStyle=1" vertex="1" parent="sources-container">
          <mxGeometry x="20" y="130" width="140" height="60" as="geometry" />
        </mxCell>
        
        <mxCell id="academic-system" value="🖥️ Sistema de&#xa;Gestión Académica" style="rounded=1;whiteSpace=wrap;html=1;fontSize=12;fillColor=#4CAF50;strokeColor=#2E7D32;fontColor=white;fontStyle=1" vertex="1" parent="sources-container">
          <mxGeometry x="20" y="220" width="140" height="60" as="geometry" />
        </mxCell>
        
        <mxCell id="system-logs" value="📊 Logs del&#xa;Sistema" style="ellipse;whiteSpace=wrap;html=1;fontSize=12;fillColor=#81C784;strokeColor=#4CAF50;fontStyle=1" vertex="1" parent="sources-container">
          <mxGeometry x="20" y="310" width="140" height="60" as="geometry" />
        </mxCell>
        
        <!-- Capa 2: Producers -->
        <mxCell id="producers-container" value="PRODUCERS" style="swimlane;whiteSpace=wrap;html=1;fontSize=14;fontStyle=1;fillColor=#E3F2FD;strokeColor=#2196F3;strokeWidth=2" vertex="1" parent="1">
          <mxGeometry x="280" y="100" width="160" height="400" as="geometry" />
        </mxCell>
        
        <mxCell id="python-producer" value="🐍 Python&#xa;Producer" style="shape=hexagon;perimeter=hexagonPerimeter2;whiteSpace=wrap;html=1;fontSize=12;fillColor=#2196F3;strokeColor=#1976D2;fontColor=white;fontStyle=1" vertex="1" parent="producers-container">
          <mxGeometry x="20" y="60" width="120" height="80" as="geometry" />
        </mxCell>
        
        <mxCell id="kafka-api" value="📤 Kafka&#xa;Producer API" style="shape=hexagon;perimeter=hexagonPerimeter2;whiteSpace=wrap;html=1;fontSize=12;fillColor=#42A5F5;strokeColor=#2196F3;fontStyle=1" vertex="1" parent="producers-container">
          <mxGeometry x="20" y="170" width="120" height="80" as="geometry" />
        </mxCell>
        
        <mxCell id="serialization" value="🔄 Data&#xa;Serialization" style="shape=hexagon;perimeter=hexagonPerimeter2;whiteSpace=wrap;html=1;fontSize=12;fillColor=#64B5F6;strokeColor=#2196F3;fontStyle=1" vertex="1" parent="producers-container">
          <mxGeometry x="20" y="280" width="120" height="80" as="geometry" />
        </mxCell>
        
        <!-- Capa 3: Confluent Cloud -->
        <mxCell id="confluent-container" value="CONFLUENT CLOUD" style="swimlane;whiteSpace=wrap;html=1;fontSize=14;fontStyle=1;fillColor=#FFF3E0;strokeColor=#FF9800;strokeWidth=2" vertex="1" parent="1">
          <mxGeometry x="490" y="100" width="200" height="400" as="geometry" />
        </mxCell>
        
        <mxCell id="confluent-cloud" value="🌐 Confluent Cloud&#xa;Kafka Cluster" style="ellipse;whiteSpace=wrap;html=1;fontSize=14;fillColor=#FF9800;strokeColor=#F57C00;fontColor=white;fontStyle=1" vertex="1" parent="confluent-container">
          <mxGeometry x="30" y="40" width="140" height="80" as="geometry" />
        </mxCell>
        
        <mxCell id="topic-estudiante" value="📂 Topic:&#xa;estudiante-eventos" style="rounded=1;whiteSpace=wrap;html=1;fontSize=11;fillColor=#FFB74D;strokeColor=#FF9800;fontStyle=1" vertex="1" parent="confluent-container">
          <mxGeometry x="20" y="140" width="160" height="50" as="geometry" />
        </mxCell>
        
        <mxCell id="topic-logs" value="📂 Topic:&#xa;sistema-logs" style="rounded=1;whiteSpace=wrap;html=1;fontSize=11;fillColor=#FFB74D;strokeColor=#FF9800;fontStyle=1" vertex="1" parent="confluent-container">
          <mxGeometry x="20" y="210" width="160" height="50" as="geometry" />
        </mxCell>
        
        <mxCell id="topic-notif" value="📂 Topic:&#xa;notificaciones" style="rounded=1;whiteSpace=wrap;html=1;fontSize=11;fillColor=#FFB74D;strokeColor=#FF9800;fontStyle=1" vertex="1" parent="confluent-container">
          <mxGeometry x="20" y="280" width="160" height="50" as="geometry" />
        </mxCell>
        
        <mxCell id="schema-registry" value="🔧 Schema&#xa;Registry" style="rounded=1;whiteSpace=wrap;html=1;fontSize=11;fillColor=#FFCC02;strokeColor=#FF9800;fontStyle=1" vertex="1" parent="confluent-container">
          <mxGeometry x="20" y="350" width="160" height="40" as="geometry" />
        </mxCell>
        
        <!-- Capa 4: Consumers -->
        <mxCell id="consumers-container" value="CONSUMERS" style="swimlane;whiteSpace=wrap;html=1;fontSize=14;fontStyle=1;fillColor=#F3E5F5;strokeColor=#9C27B0;strokeWidth=2" vertex="1" parent="1">
          <mxGeometry x="740" y="100" width="160" height="400" as="geometry" />
        </mxCell>
        
        <mxCell id="python-consumer" value="🐍 Python&#xa;Consumer" style="shape=hexagon;perimeter=hexagonPerimeter2;whiteSpace=wrap;html=1;fontSize=12;fillColor=#9C27B0;strokeColor=#7B1FA2;fontColor=white;fontStyle=1" vertex="1" parent="consumers-container">
          <mxGeometry x="20" y="60" width="120" height="80" as="geometry" />
        </mxCell>
        
        <mxCell id="kafka-consumer-api" value="📥 Kafka&#xa;Consumer API" style="shape=hexagon;perimeter=hexagonPerimeter2;whiteSpace=wrap;html=1;fontSize=12;fillColor=#BA68C8;strokeColor=#9C27B0;fontStyle=1" vertex="1" parent="consumers-container">
          <mxGeometry x="20" y="170" width="120" height="80" as="geometry" />
        </mxCell>
        
        <mxCell id="data-processing" value="🔄 Data&#xa;Processing" style="shape=hexagon;perimeter=hexagonPerimeter2;whiteSpace=wrap;html=1;fontSize=12;fillColor=#CE93D8;strokeColor=#9C27B0;fontStyle=1" vertex="1" parent="consumers-container">
          <mxGeometry x="20" y="280" width="120" height="80" as="geometry" />
        </mxCell>
        
        <!-- Capa 5: AWS Services -->
        <mxCell id="aws-container" value="AWS SERVICES" style="swimlane;whiteSpace=wrap;html=1;fontSize=14;fontStyle=1;fillColor=#E8F4FD;strokeColor=#1976D2;strokeWidth=2" vertex="1" parent="1">
          <mxGeometry x="950" y="100" width="180" height="400" as="geometry" />
        </mxCell>
        
        <mxCell id="aws-cloud" value="☁️ AWS Cloud" style="ellipse;whiteSpace=wrap;html=1;fontSize=14;fillColor=#1976D2;strokeColor=#0D47A1;fontColor=white;fontStyle=1" vertex="1" parent="aws-container">
          <mxGeometry x="20" y="40" width="140" height="60" as="geometry" />
        </mxCell>
        
        <mxCell id="s3-bucket" value="🪣 S3 Bucket&#xa;(Data Lake)" style="rounded=1;whiteSpace=wrap;html=1;fontSize=11;fillColor=#42A5F5;strokeColor=#1976D2;fontColor=white;fontStyle=1" vertex="1" parent="aws-container">
          <mxGeometry x="20" y="130" width="140" height="50" as="geometry" />
        </mxCell>
        
        <mxCell id="cloudwatch" value="📊 CloudWatch&#xa;(Monitoring)" style="rounded=1;whiteSpace=wrap;html=1;fontSize=11;fillColor=#42A5F5;strokeColor=#1976D2;fontColor=white;fontStyle=1" vertex="1" parent="aws-container">
          <mxGeometry x="20" y="200" width="140" height="50" as="geometry" />
        </mxCell>
        
        <mxCell id="cloudwatch-alarms" value="🚨 CloudWatch&#xa;Alarms" style="rounded=1;whiteSpace=wrap;html=1;fontSize=11;fillColor=#EF5350;strokeColor=#F44336;fontColor=white;fontStyle=1" vertex="1" parent="aws-container">
          <mxGeometry x="20" y="270" width="140" height="50" as="geometry" />
        </mxCell>
        
        <mxCell id="sns" value="📧 SNS&#xa;(Notifications)" style="rounded=1;whiteSpace=wrap;html=1;fontSize=11;fillColor=#66BB6A;strokeColor=#4CAF50;fontColor=white;fontStyle=1" vertex="1" parent="aws-container">
          <mxGeometry x="20" y="340" width="140" height="50" as="geometry" />
        </mxCell>
        
        <!-- Conexiones principales -->
        <mxCell id="conn1" value="Tiempo Real" style="edgeStyle=orthogonalEdgeStyle;rounded=0;orthogonalLoop=1;jettySize=auto;html=1;strokeWidth=3;strokeColor=#4CAF50;fontColor=#2E7D32;fontStyle=1;fontSize=10" edge="1" parent="1" source="web-app" target="python-producer">
          <mxGeometry relative="1" as="geometry" />
        </mxCell>
        
        <mxCell id="conn2" value="Eventos JSON" style="edgeStyle=orthogonalEdgeStyle;rounded=0;orthogonalLoop=1;jettySize=auto;html=1;strokeWidth=3;strokeColor=#2196F3;fontColor=#1976D2;fontStyle=1;fontSize=10" edge="1" parent="1" source="python-producer" target="confluent-cloud">
          <mxGeometry relative="1" as="geometry" />
        </mxCell>
        
        <mxCell id="conn3" value="Streaming" style="edgeStyle=orthogonalEdgeStyle;rounded=0;orthogonalLoop=1;jettySize=auto;html=1;strokeWidth=3;strokeColor=#FF9800;fontColor=#F57C00;fontStyle=1;fontSize=10" edge="1" parent="1" source="confluent-cloud" target="python-consumer">
          <mxGeometry relative="1" as="geometry" />
        </mxCell>
        
        <mxCell id="conn4" value="Procesamiento" style="edgeStyle=orthogonalEdgeStyle;rounded=0;orthogonalLoop=1;jettySize=auto;html=1;strokeWidth=3;strokeColor=#9C27B0;fontColor=#7B1FA2;fontStyle=1;fontSize=10" edge="1" parent="1" source="python-consumer" target="aws-cloud">
          <mxGeometry relative="1" as="geometry" />
        </mxCell>
        
        <!-- Conexiones secundarias -->
        <mxCell id="conn5" value="" style="edgeStyle=orthogonalEdgeStyle;rounded=0;orthogonalLoop=1;jettySize=auto;html=1;strokeWidth=2;strokeColor=#757575;dashed=1" edge="1" parent="1" source="user-events" target="kafka-api">
          <mxGeometry relative="1" as="geometry" />
        </mxCell>
        
        <mxCell id="conn6" value="" style="edgeStyle=orthogonalEdgeStyle;rounded=0;orthogonalLoop=1;jettySize=auto;html=1;strokeWidth=2;strokeColor=#757575;dashed=1" edge="1" parent="1" source="academic-system" target="serialization">
          <mxGeometry relative="1" as="geometry" />
        </mxCell>
        
        <mxCell id="conn7" value="" style="edgeStyle=orthogonalEdgeStyle;rounded=0;orthogonalLoop=1;jettySize=auto;html=1;strokeWidth=2;strokeColor=#757575;dashed=1" edge="1" parent="1" source="system-logs" target="serialization">
          <mxGeometry relative="1" as="geometry" />
        </mxCell>
        
        <!-- Conexiones a AWS services -->
        <mxCell id="conn8" value="Almacenamiento" style="edgeStyle=orthogonalEdgeStyle;rounded=0;orthogonalLoop=1;jettySize=auto;html=1;strokeWidth=2;strokeColor=#1976D2;fontColor=#0D47A1;fontStyle=1;fontSize=9" edge="1" parent="1" source="data-processing" target="s3-bucket">
          <mxGeometry relative="1" as="geometry" />
        </mxCell>
        
        <mxCell id="conn9" value="Monitoreo" style="edgeStyle=orthogonalEdgeStyle;rounded=0;orthogonalLoop=1;jettySize=auto;html=1;strokeWidth=2;strokeColor=#1976D2;fontColor=#0D47A1;fontStyle=1;fontSize=9" edge="1" parent="1" source="data-processing" target="cloudwatch">
          <mxGeometry relative="1" as="geometry" />
        </mxCell>
        
        <mxCell id="conn10" value="Alertas" style="edgeStyle=orthogonalEdgeStyle;rounded=0;orthogonalLoop=1;jettySize=auto;html=1;strokeWidth=2;strokeColor=#F44336;fontColor=#D32F2F;fontStyle=1;fontSize=9;dashed=1" edge="1" parent="1" source="cloudwatch" target="cloudwatch-alarms">
          <mxGeometry relative="1" as="geometry" />
        </mxCell>
        
        <mxCell id="conn11" value="Notificaciones" style="edgeStyle=orthogonalEdgeStyle;rounded=0;orthogonalLoop=1;jettySize=auto;html=1;strokeWidth=2;strokeColor=#4CAF50;fontColor=#2E7D32;fontStyle=1;fontSize=9;dashed=1" edge="1" parent="1" source="cloudwatch-alarms" target="sns">
          <mxGeometry relative="1" as="geometry" />
        </mxCell>
        
        <!-- Métricas y anotaciones -->
        <mxCell id="metrics" value="📊 MÉTRICAS CLAVE&#xa;• Throughput: 10,000 msgs/sec&#xa;• Latencia: &lt; 5ms&#xa;• Escalabilidad: Auto-scaling&#xa;• Disponibilidad: 99.9%" style="rounded=1;whiteSpace=wrap;html=1;fontSize=10;fillColor=#FFF9C4;strokeColor=#F9A825;fontStyle=1;align=left;verticalAlign=top" vertex="1" parent="1">
          <mxGeometry x="50" y="520" width="200" height="100" as="geometry" />
        </mxCell>
        
        <mxCell id="flow-steps" value="🔄 FLUJO DE DATOS&#xa;1️⃣ Generación de Eventos&#xa;2️⃣ Producción a Topics&#xa;3️⃣ Streaming en Confluent&#xa;4️⃣ Consumo y Procesamiento&#xa;5️⃣ Almacenamiento en AWS" style="rounded=1;whiteSpace=wrap;html=1;fontSize=10;fillColor=#E1F5FE;strokeColor=#0288D1;fontStyle=1;align=left;verticalAlign=top" vertex="1" parent="1">
          <mxGeometry x="280" y="520" width="220" height="100" as="geometry" />
        </mxCell>
        
        <mxCell id="benefits" value="🎯 BENEFICIOS&#xa;• Tiempo Real&#xa;• Escalabilidad Automática&#xa;• Integración Nativa&#xa;• Monitoreo Incluido&#xa;• Alta Disponibilidad" style="rounded=1;whiteSpace=wrap;html=1;fontSize=10;fillColor=#E8F5E8;strokeColor=#4CAF50;fontStyle=1;align=left;verticalAlign=top" vertex="1" parent="1">
          <mxGeometry x="530" y="520" width="180" height="100" as="geometry" />
        </mxCell>
        
        <mxCell id="technologies" value="🛠️ TECNOLOGÍAS&#xa;• Confluent Cloud (SaaS)&#xa;• Apache Kafka&#xa;• Python (Producer/Consumer)&#xa;• AWS S3, CloudWatch, SNS&#xa;• JSON Schema" style="rounded=1;whiteSpace=wrap;html=1;fontSize=10;fillColor=#FCE4EC;strokeColor=#E91E63;fontStyle=1;align=left;verticalAlign=top" vertex="1" parent="1">
          <mxGeometry x="740" y="520" width="200" height="100" as="geometry" />
        </mxCell>
        
        <mxCell id="legend" value="🎨 LEYENDA&#xa;🟢 Fuentes de Datos&#xa;🔵 Producers&#xa;🟠 Confluent Cloud&#xa;🟣 Consumers&#xa;🔷 AWS Services&#xa;🔴 Alertas" style="rounded=1;whiteSpace=wrap;html=1;fontSize=10;fillColor=#F5F5F5;strokeColor=#9E9E9E;fontStyle=1;align=left;verticalAlign=top" vertex="1" parent="1">
          <mxGeometry x="970" y="520" width="160" height="100" as="geometry" />
        </mxCell>
        
        <!-- Etiquetas de performance -->
        <mxCell id="realtime-label" value="TIEMPO REAL" style="text;html=1;strokeColor=none;fillColor=#4CAF50;align=center;verticalAlign=middle;whiteSpace=wrap;rounded=1;fontSize=8;fontColor=white;fontStyle=1" vertex="1" parent="1">
          <mxGeometry x="140" y="80" width="80" height="15" as="geometry" />
        </mxCell>
        
        <mxCell id="scalable-label" value="ESCALABLE" style="text;html=1;strokeColor=none;fillColor=#FF9800;align=center;verticalAlign=middle;whiteSpace=wrap;rounded=1;fontSize=8;fontColor=white;fontStyle=1" vertex="1" parent="1">
          <mxGeometry x="550" y="80" width="80" height="15" as="geometry" />
        </mxCell>
        
        <mxCell id="persistent-label" value="PERSISTENTE" style="text;html=1;strokeColor=none;fillColor=#1976D2;align=center;verticalAlign=middle;whiteSpace=wrap;rounded=1;fontSize=8;fontColor=white;fontStyle=1" vertex="1" parent="1">
          <mxGeometry x="1010" y="80" width="80" height="15" as="geometry" />
        </mxCell>
        
      </root>
    </mxGraphModel>
  </diagram>
</mxfile>
